ffmpeg started on 2025-06-06 at 15:09:14
Report written to "D:\Convert\FFMetrics\reports\ssim_report-6.txt"
Log level: 32
Command line:
ffmpeg -hide_banner -nostdin -i "G:\\\xc0\xed\xe8\xec\xe5\\\xce\xed\xe3\xee\xe8\xed\xe3\xe8\\!_36_\xce\xf1\xe5\xed\xfc_2024\\DreamCast\\\xcd\xe8\xed\xe0 \xe2 \xea\xee\xf0\xee\xeb\xe5\xe2\xf1\xf2\xe2\xe5 \xe7\xe2\xb8\xe7\xe4\\[DC] Hoshi Furu Oukoku no Nina - 01_Telegram_HEVC.mkv" -i "G:\\\xc0\xed\xe8\xec\xe5\\\xce\xed\xe3\xee\xe8\xed\xe3\xe8\\!_36_\xce\xf1\xe5\xed\xfc_2024\\DreamCast\\\xcd\xe8\xed\xe0 \xe2 \xea\xee\xf0\xee\xeb\xe5\xe2\xf1\xf2\xe2\xe5 \xe7\xe2\xb8\xe7\xe4\\[DC] Hoshi Furu Oukoku no Nina - 01_Telegram.mp4" -lavfi "[0:v]settb=AVTB,setpts=PTS-STARTPTS,format=pix_fmts=yuv420p10,fps=24000/1001,scale=1920:1080:flags=bicubic[main];[1:v]settb=AVTB,setpts=PTS-STARTPTS,format=pix_fmts=yuv420p,fps=24000/1001,scale=1920:1080:flags=bicubic[ref];[main][ref]ssim=eof_action=endall:stats_file='D\\:/Convert/FFMetrics/logs/ssim_logfile-6.txt'" -f null -
Input #0, matroska,webm, from 'G:\Аниме\Онгоинги\!_36_Осень_2024\DreamCast\Нина в королевстве звёзд\[DC] Hoshi Furu Oukoku no Nina - 01_Telegram_HEVC.mkv':
  Metadata:
    COMPATIBLE_BRANDS: isomiso2avc1mp41
    MAJOR_BRAND     : isom
    MINOR_VERSION   : 512
    ENCODER         : Lavf61.7.100
  Duration: 00:23:46.65, start: -0.021000, bitrate: 898 kb/s
  Stream #0:0: Video: hevc (Main 10), yuv420p10le(tv, bt709, progressive), 1920x1080 [SAR 1:1 DAR 16:9], 23.98 fps, 23.98 tbr, 1k tbn (default)
      Metadata:
        HANDLER_NAME    : VideoHandler
        VENDOR_ID       : [0][0][0][0]
        ENCODER         : Lavc61.19.100 libx265
        BPS             : 700608
        DURATION        : 00:23:46.549708333
        NUMBER_OF_FRAMES: 34203
        NUMBER_OF_BYTES : 124931482
        _STATISTICS_WRITING_APP: mkvpropedit v66.0.0 ('Josie') 64-bit
        _STATISTICS_WRITING_DATE_UTC: 2025-05-31 16:55:43
        _STATISTICS_TAGS: BPS DURATION NUMBER_OF_FRAMES NUMBER_OF_BYTES
  Stream #0:1: Audio: aac (LC), 48000 Hz, stereo, fltp (default)
      Metadata:
        HANDLER_NAME    : SoundHandler
        VENDOR_ID       : [0][0][0][0]
        ENCODER         : Lavc61.19.100 aac
        BPS             : 194187
        DURATION        : 00:23:46.645000000
        NUMBER_OF_FRAMES: 66875
        NUMBER_OF_BYTES : 34629601
        _STATISTICS_WRITING_APP: mkvpropedit v66.0.0 ('Josie') 64-bit
        _STATISTICS_WRITING_DATE_UTC: 2025-05-31 16:55:43
        _STATISTICS_TAGS: BPS DURATION NUMBER_OF_FRAMES NUMBER_OF_BYTES
Input #1, mov,mp4,m4a,3gp,3g2,mj2, from 'G:\Аниме\Онгоинги\!_36_Осень_2024\DreamCast\Нина в королевстве звёзд\[DC] Hoshi Furu Oukoku no Nina - 01_Telegram.mp4':
  Metadata:
    major_brand     : isom
    minor_version   : 512
    compatible_brands: isomiso2avc1mp41
    encoder         : Lavf61.1.100
  Duration: 00:23:46.62, start: 0.000000, bitrate: 3840 kb/s
  Stream #1:0[0x1](und): Video: h264 (High) (avc1 / 0x31637661), yuv420p(tv, bt709, progressive), 1920x1080 [SAR 1:1 DAR 16:9], 3693 kb/s, 23.98 fps, 23.98 tbr, 24k tbn (default)
      Metadata:
        handler_name    : VideoHandler
        vendor_id       : [0][0][0][0]
        encoder         : Lavc61.3.100 h264_qsv
  Stream #1:1[0x2](und): Audio: aac (HE-AACv2) (mp4a / 0x6134706D), 48000 Hz, stereo, fltp, 144 kb/s (default)
      Metadata:
        handler_name    : SoundHandler
        vendor_id       : [0][0][0][0]
Stream mapping:
  Stream #0:0 (hevc) -> settb:default
  Stream #1:0 (h264) -> settb:default
  ssim:default -> Stream #0:0 (wrapped_avframe)
  Stream #0:1 -> #0:1 (aac (native) -> pcm_s16le (native))
Output #0, null, to 'pipe:':
  Metadata:
    COMPATIBLE_BRANDS: isomiso2avc1mp41
    MAJOR_BRAND     : isom
    MINOR_VERSION   : 512
    encoder         : Lavf61.7.100
  Stream #0:0: Video: wrapped_avframe, yuv420p10le(tv, bt709, progressive), 1920x1080 [SAR 1:1 DAR 16:9], q=2-31, 200 kb/s, 23.98 fps, 23.98 tbn
      Metadata:
        encoder         : Lavc61.19.100 wrapped_avframe
  Stream #0:1: Audio: pcm_s16le, 48000 Hz, stereo, s16, 1536 kb/s (default)
      Metadata:
        HANDLER_NAME    : SoundHandler
        VENDOR_ID       : [0][0][0][0]
        _STATISTICS_TAGS: BPS DURATION NUMBER_OF_FRAMES NUMBER_OF_BYTES
        BPS             : 194187
        DURATION        : 00:23:46.645000000
        NUMBER_OF_FRAMES: 66875
        NUMBER_OF_BYTES : 34629601
        _STATISTICS_WRITING_APP: mkvpropedit v66.0.0 ('Josie') 64-bit
        _STATISTICS_WRITING_DATE_UTC: 2025-05-31 16:55:43
        encoder         : Lavc61.19.100 pcm_s16le
frame=  165 fps=0.0 q=-0.0 size=N/A time=00:00:06.88 bitrate=N/A speed=13.3x    frame=  418 fps=407 q=-0.0 size=N/A time=00:00:17.43 bitrate=N/A speed=  17x    frame=  682 fps=440 q=-0.0 size=N/A time=00:00:28.44 bitrate=N/A speed=18.4x    frame=  923 fps=449 q=-0.0 size=N/A time=00:00:38.49 bitrate=N/A speed=18.7x    frame= 1162 fps=450 q=-0.0 size=N/A time=00:00:48.46 bitrate=N/A speed=18.8x    frame= 1325 fps=428 q=-0.0 size=N/A time=00:00:55.26 bitrate=N/A speed=17.9x    frame= 1538 fps=425 q=-0.0 size=N/A time=00:01:04.14 bitrate=N/A speed=17.7x    frame= 1718 fps=416 q=-0.0 size=N/A time=00:01:11.65 bitrate=N/A speed=17.4x    frame= 1915 fps=413 q=-0.0 size=N/A time=00:01:19.87 bitrate=N/A speed=17.2x    frame= 2098 fps=407 q=-0.0 size=N/A time=00:01:27.50 bitrate=N/A speed=  17x    frame= 2283 fps=402 q=-0.0 size=N/A time=00:01:35.22 bitrate=N/A speed=16.8x    frame= 2461 fps=398 q=-0.0 size=N/A time=00:01:42.64 bitrate=N/A speed=16.6x    frame= 2683 fps=400 q=-0.0 size=N/A time=00:01:51.90 bitrate=N/A speed=16.7x    frame= 2890 fps=400 q=-0.0 size=N/A time=00:02:00.53 bitrate=N/A speed=16.7x    frame= 3123 fps=404 q=-0.0 size=N/A time=00:02:10.25 bitrate=N/A speed=16.8x    frame= 3316 fps=402 q=-0.0 size=N/A time=00:02:18.30 bitrate=N/A speed=16.8x    frame= 3544 fps=404 q=-0.0 size=N/A time=00:02:27.81 bitrate=N/A speed=16.8x    frame= 3804 fps=410 q=-0.0 size=N/A time=00:02:38.65 bitrate=N/A speed=17.1x    frame= 4060 fps=415 q=-0.0 size=N/A time=00:02:49.33 bitrate=N/A speed=17.3x    frame= 4303 fps=417 q=-0.0 size=N/A time=00:02:59.47 bitrate=N/A speed=17.4x    frame= 4548 fps=420 q=-0.0 size=N/A time=00:03:09.68 bitrate=N/A speed=17.5x    frame= 4816 fps=424 q=-0.0 size=N/A time=00:03:20.86 bitrate=N/A speed=17.7x    frame= 5055 fps=426 q=-0.0 size=N/A time=00:03:30.83 bitrate=N/A speed=17.8x    frame= 5297 fps=428 q=-0.0 size=N/A time=00:03:40.92 bitrate=N/A speed=17.9x    frame= 5537 fps=429 q=-0.0 size=N/A time=00:03:50.93 bitrate=N/A speed=17.9x    frame= 5787 fps=432 q=-0.0 size=N/A time=00:04:01.36 bitrate=N/A speed=  18x    frame= 6049 fps=435 q=-0.0 size=N/A time=00:04:12.29 bitrate=N/A speed=18.1x    frame= 6292 fps=436 q=-0.0 size=N/A time=00:04:22.42 bitrate=N/A speed=18.2x    frame= 6547 fps=438 q=-0.0 size=N/A time=00:04:33.06 bitrate=N/A speed=18.3x    frame= 6802 fps=440 q=-0.0 size=N/A time=00:04:43.70 bitrate=N/A speed=18.3x    frame= 7053 fps=441 q=-0.0 size=N/A time=00:04:54.16 bitrate=N/A speed=18.4x    frame= 7293 fps=442 q=-0.0 size=N/A time=00:05:04.17 bitrate=N/A speed=18.4x    frame= 7538 fps=443 q=-0.0 size=N/A time=00:05:14.39 bitrate=N/A speed=18.5x    frame= 7792 fps=444 q=-0.0 size=N/A time=00:05:24.99 bitrate=N/A speed=18.5x    frame= 8012 fps=444 q=-0.0 size=N/A time=00:05:34.16 bitrate=N/A speed=18.5x    frame= 8233 fps=443 q=-0.0 size=N/A time=00:05:43.38 bitrate=N/A speed=18.5x    frame= 8475 fps=444 q=-0.0 size=N/A time=00:05:53.47 bitrate=N/A speed=18.5x    frame= 8744 fps=446 q=-0.0 size=N/A time=00:06:04.69 bitrate=N/A speed=18.6x    frame= 9012 fps=448 q=-0.0 size=N/A time=00:06:15.87 bitrate=N/A speed=18.7x    frame= 9263 fps=449 q=-0.0 size=N/A time=00:06:26.34 bitrate=N/A speed=18.7x    frame= 9513 fps=450 q=-0.0 size=N/A time=00:06:36.77 bitrate=N/A speed=18.8x    frame= 9771 fps=451 q=-0.0 size=N/A time=00:06:47.53 bitrate=N/A speed=18.8x    frame=10038 fps=453 q=-0.0 size=N/A time=00:06:58.66 bitrate=N/A speed=18.9x    frame=10289 fps=453 q=-0.0 size=N/A time=00:07:09.13 bitrate=N/A speed=18.9x    frame=10550 fps=455 q=-0.0 size=N/A time=00:07:20.02 bitrate=N/A speed=  19x    frame=10799 fps=455 q=-0.0 size=N/A time=00:07:30.40 bitrate=N/A speed=  19x    frame=11019 fps=455 q=-0.0 size=N/A time=00:07:39.58 bitrate=N/A speed=  19x    frame=11274 fps=456 q=-0.0 size=N/A time=00:07:50.21 bitrate=N/A speed=  19x    frame=11565 fps=458 q=-0.0 size=N/A time=00:08:02.35 bitrate=N/A speed=19.1x    frame=11846 fps=459 q=-0.0 size=N/A time=00:08:14.07 bitrate=N/A speed=19.1x    frame=12081 fps=459 q=-0.0 size=N/A time=00:08:23.87 bitrate=N/A speed=19.2x    frame=12317 fps=459 q=-0.0 size=N/A time=00:08:33.72 bitrate=N/A speed=19.2x    frame=12572 fps=460 q=-0.0 size=N/A time=00:08:44.35 bitrate=N/A speed=19.2x    frame=12827 fps=460 q=-0.0 size=N/A time=00:08:54.99 bitrate=N/A speed=19.2x    frame=13091 fps=461 q=-0.0 size=N/A time=00:09:06.00 bitrate=N/A speed=19.2x    frame=13338 fps=462 q=-0.0 size=N/A time=00:09:16.30 bitrate=N/A speed=19.3x    frame=13570 fps=461 q=-0.0 size=N/A time=00:09:25.98 bitrate=N/A speed=19.2x    frame=13797 fps=461 q=-0.0 size=N/A time=00:09:35.44 bitrate=N/A speed=19.2x    frame=14020 fps=460 q=-0.0 size=N/A time=00:09:44.75 bitrate=N/A speed=19.2x    frame=14263 fps=461 q=-0.0 size=N/A time=00:09:54.88 bitrate=N/A speed=19.2x    frame=14504 fps=461 q=-0.0 size=N/A time=00:10:04.93 bitrate=N/A speed=19.2x    frame=14742 fps=461 q=-0.0 size=N/A time=00:10:14.86 bitrate=N/A speed=19.2x    frame=15007 fps=461 q=-0.0 size=N/A time=00:10:25.91 bitrate=N/A speed=19.2x    frame=15271 fps=462 q=-0.0 size=N/A time=00:10:36.92 bitrate=N/A speed=19.3x    frame=15528 fps=463 q=-0.0 size=N/A time=00:10:47.64 bitrate=N/A speed=19.3x    frame=15798 fps=464 q=-0.0 size=N/A time=00:10:58.90 bitrate=N/A speed=19.3x    frame=16074 fps=465 q=-0.0 size=N/A time=00:11:10.41 bitrate=N/A speed=19.4x    frame=16355 fps=466 q=-0.0 size=N/A time=00:11:22.13 bitrate=N/A speed=19.4x    frame=16608 fps=466 q=-0.0 size=N/A time=00:11:32.69 bitrate=N/A speed=19.4x    frame=16855 fps=466 q=-0.0 size=N/A time=00:11:42.99 bitrate=N/A speed=19.5x    frame=17124 fps=467 q=-0.0 size=N/A time=00:11:54.21 bitrate=N/A speed=19.5x    frame=17392 fps=468 q=-0.0 size=N/A time=00:12:05.39 bitrate=N/A speed=19.5x    frame=17648 fps=468 q=-0.0 size=N/A time=00:12:16.06 bitrate=N/A speed=19.5x    frame=17922 fps=469 q=-0.0 size=N/A time=00:12:27.49 bitrate=N/A speed=19.6x    frame=18178 fps=469 q=-0.0 size=N/A time=00:12:38.17 bitrate=N/A speed=19.6x    frame=18398 fps=469 q=-0.0 size=N/A time=00:12:47.34 bitrate=N/A speed=19.6x    frame=18646 fps=469 q=-0.0 size=N/A time=00:12:57.69 bitrate=N/A speed=19.6x    frame=18872 fps=469 q=-0.0 size=N/A time=00:13:07.11 bitrate=N/A speed=19.6x    frame=19105 fps=468 q=-0.0 size=N/A time=00:13:16.83 bitrate=N/A speed=19.5x    frame=19360 fps=469 q=-0.0 size=N/A time=00:13:27.47 bitrate=N/A speed=19.6x    frame=19592 fps=469 q=-0.0 size=N/A time=00:13:37.14 bitrate=N/A speed=19.5x    frame=19803 fps=468 q=-0.0 size=N/A time=00:13:45.95 bitrate=N/A speed=19.5x    frame=20012 fps=467 q=-0.0 size=N/A time=00:13:54.66 bitrate=N/A speed=19.5x    frame=20257 fps=467 q=-0.0 size=N/A time=00:14:04.88 bitrate=N/A speed=19.5x    frame=20520 fps=468 q=-0.0 size=N/A time=00:14:15.85 bitrate=N/A speed=19.5x    frame=20764 fps=468 q=-0.0 size=N/A time=00:14:26.03 bitrate=N/A speed=19.5x    frame=21026 fps=468 q=-0.0 size=N/A time=00:14:36.95 bitrate=N/A speed=19.5x    frame=21252 fps=468 q=-0.0 size=N/A time=00:14:46.38 bitrate=N/A speed=19.5x    frame=21509 fps=468 q=-0.0 size=N/A time=00:14:57.10 bitrate=N/A speed=19.5x    frame=21793 fps=469 q=-0.0 size=N/A time=00:15:08.94 bitrate=N/A speed=19.6x    frame=22026 fps=469 q=-0.0 size=N/A time=00:15:18.66 bitrate=N/A speed=19.6x    frame=22272 fps=469 q=-0.0 size=N/A time=00:15:28.92 bitrate=N/A speed=19.6x    frame=22548 fps=470 q=-0.0 size=N/A time=00:15:40.43 bitrate=N/A speed=19.6x    frame=22822 fps=470 q=-0.0 size=N/A time=00:15:51.86 bitrate=N/A speed=19.6x    frame=23077 fps=471 q=-0.0 size=N/A time=00:16:02.50 bitrate=N/A speed=19.6x    frame=23345 fps=471 q=-0.0 size=N/A time=00:16:13.68 bitrate=N/A speed=19.6x    frame=23578 fps=471 q=-0.0 size=N/A time=00:16:23.39 bitrate=N/A speed=19.6x    frame=23836 fps=471 q=-0.0 size=N/A time=00:16:34.15 bitrate=N/A speed=19.7x    frame=24049 fps=471 q=-0.0 size=N/A time=00:16:43.04 bitrate=N/A speed=19.6x    frame=24283 fps=471 q=-0.0 size=N/A time=00:16:52.80 bitrate=N/A speed=19.6x    frame=24530 fps=471 q=-0.0 size=N/A time=00:17:03.10 bitrate=N/A speed=19.6x    frame=24783 fps=471 q=-0.0 size=N/A time=00:17:13.65 bitrate=N/A speed=19.6x    frame=25044 fps=471 q=-0.0 size=N/A time=00:17:24.54 bitrate=N/A speed=19.6x    frame=25270 fps=471 q=-0.0 size=N/A time=00:17:33.96 bitrate=N/A speed=19.6x    frame=25485 fps=470 q=-0.0 size=N/A time=00:17:42.93 bitrate=N/A speed=19.6x    frame=25719 fps=470 q=-0.0 size=N/A time=00:17:52.69 bitrate=N/A speed=19.6x    frame=25953 fps=470 q=-0.0 size=N/A time=00:18:02.45 bitrate=N/A speed=19.6x    frame=26235 fps=471 q=-0.0 size=N/A time=00:18:14.21 bitrate=N/A speed=19.6x    frame=26480 fps=471 q=-0.0 size=N/A time=00:18:24.43 bitrate=N/A speed=19.6x    frame=26762 fps=471 q=-0.0 size=N/A time=00:18:36.19 bitrate=N/A speed=19.7x    frame=27034 fps=472 q=-0.0 size=N/A time=00:18:47.54 bitrate=N/A speed=19.7x    frame=27315 fps=473 q=-0.0 size=N/A time=00:18:59.26 bitrate=N/A speed=19.7x    frame=27569 fps=473 q=-0.0 size=N/A time=00:19:09.85 bitrate=N/A speed=19.7x    frame=27845 fps=473 q=-0.0 size=N/A time=00:19:21.36 bitrate=N/A speed=19.7x    frame=28089 fps=473 q=-0.0 size=N/A time=00:19:31.54 bitrate=N/A speed=19.7x    frame=28309 fps=473 q=-0.0 size=N/A time=00:19:40.72 bitrate=N/A speed=19.7x    frame=28565 fps=473 q=-0.0 size=N/A time=00:19:51.39 bitrate=N/A speed=19.7x    frame=28800 fps=473 q=-0.0 size=N/A time=00:20:01.20 bitrate=N/A speed=19.7x    frame=29014 fps=473 q=-0.0 size=N/A time=00:20:10.12 bitrate=N/A speed=19.7x    frame=29272 fps=473 q=-0.0 size=N/A time=00:20:20.88 bitrate=N/A speed=19.7x    frame=29503 fps=473 q=-0.0 size=N/A time=00:20:30.52 bitrate=N/A speed=19.7x    frame=29766 fps=473 q=-0.0 size=N/A time=00:20:41.49 bitrate=N/A speed=19.7x    frame=30031 fps=473 q=-0.0 size=N/A time=00:20:52.54 bitrate=N/A speed=19.7x    frame=30316 fps=474 q=-0.0 size=N/A time=00:21:04.42 bitrate=N/A speed=19.8x    frame=30588 fps=474 q=-0.0 size=N/A time=00:21:15.77 bitrate=N/A speed=19.8x    frame=30824 fps=474 q=-0.0 size=N/A time=00:21:25.61 bitrate=N/A speed=19.8x    frame=31079 fps=474 q=-0.0 size=N/A time=00:21:36.25 bitrate=N/A speed=19.8x    frame=31336 fps=474 q=-0.0 size=N/A time=00:21:46.97 bitrate=N/A speed=19.8x    frame=31593 fps=475 q=-0.0 size=N/A time=00:21:57.69 bitrate=N/A speed=19.8x    frame=31853 fps=475 q=-0.0 size=N/A time=00:22:08.53 bitrate=N/A speed=19.8x    frame=32103 fps=475 q=-0.0 size=N/A time=00:22:18.96 bitrate=N/A speed=19.8x    frame=32357 fps=475 q=-0.0 size=N/A time=00:22:29.55 bitrate=N/A speed=19.8x    frame=32603 fps=475 q=-0.0 size=N/A time=00:22:39.81 bitrate=N/A speed=19.8x    frame=32858 fps=475 q=-0.0 size=N/A time=00:22:50.45 bitrate=N/A speed=19.8x    frame=33086 fps=475 q=-0.0 size=N/A time=00:22:59.96 bitrate=N/A speed=19.8x    frame=33335 fps=475 q=-0.0 size=N/A time=00:23:10.34 bitrate=N/A speed=19.8x    frame=33590 fps=475 q=-0.0 size=N/A time=00:23:20.98 bitrate=N/A speed=19.8x    frame=33814 fps=475 q=-0.0 size=N/A time=00:23:30.32 bitrate=N/A speed=19.8x    frame=34061 fps=475 q=-0.0 size=N/A time=00:23:40.62 bitrate=N/A speed=19.8x    [Parsed_ssim_10 @ 000001abb399d940] SSIM Y:0.994633 (22.702678) U:0.993884 (22.135504) V:0.994274 (22.421755) All:0.994448 (22.555841)
[out#0/null @ 000001abb3434680] video:14697KiB audio:267500KiB subtitle:0KiB other streams:0KiB global headers:0KiB muxing overhead: unknown
frame=34203 fps=475 q=-0.0 Lsize=N/A time=00:23:46.55 bitrate=N/A speed=19.8x    
